<svg width="69" height="82" viewBox="0 0 69 82" fill="none" xmlns="http://www.w3.org/2000/svg">
<path d="M53.9602 32.5361C50.9916 32.1939 48.0679 31.7481 45.6384 29.6884C42.8115 27.2934 39.9154 24.9849 37.0262 22.6694C36.4457 22.2029 35.7856 21.8193 35.1255 21.4668C32.1016 19.8529 30.1628 20.0498 27.5743 22.3307C25.328 24.3075 23.1162 26.3258 20.9528 28.3924C17.0545 32.1145 13.3809 36.0542 9.85236 40.1253C8.93654 41.1828 7.88248 41.9673 6.43791 42.0986C5.31819 42.1988 4.22958 42.2368 3.44508 41.1862C2.64677 40.1184 2.75736 38.9986 3.29648 37.9239C4.06024 36.4067 4.8862 34.9137 5.77092 33.4623C8.37668 29.1873 10.941 24.8847 13.5709 20.6201C16.0557 16.587 18.582 12.5816 21.2016 8.63494C24.8476 3.12967 30.0902 0.427139 36.5908 0.0504442C38.3879 -0.0532333 40.1953 0.0262528 41.9993 0.0815475C43.0568 0.112651 43.513 0.65523 43.589 1.80605C44.1835 10.8709 47.2281 18.9198 53.7805 25.4065C54.8692 26.4848 56.1997 27.3418 57.5026 28.1747C58.4979 28.8106 58.5704 29.526 58.0762 30.4522C57.1984 32.0972 55.7642 32.6467 53.9637 32.543L53.9602 32.5361Z" fill="#2A3250"/>
<path d="M35.2865 64.9147C39.6963 64.8905 44.1061 64.9389 48.5089 65.243C50.8797 65.4054 51.2805 64.8352 50.9902 62.4368C50.458 58.0028 50.2369 53.5481 50.5168 49.0866C50.655 46.9059 51.4257 44.8876 52.5938 43.0387C53.2677 41.9743 54.2215 41.2624 55.5071 41.1414C57.1176 40.9893 58.068 41.7531 58.2719 43.3808C58.811 47.6454 59.0771 51.9515 60.3247 56.1021C61.199 59.0223 62.0319 61.9184 63.3866 64.7142C64.7897 67.6068 66.1963 70.4683 67.9208 73.1709C68.612 74.256 68.4841 75.2168 67.7756 76.2224C65.4878 79.4779 62.1598 80.7186 58.3928 81.1886C50.2576 82.2046 42.7997 80.4179 35.9017 75.9943C32.2281 73.6374 28.036 72.8529 23.7541 72.5108C20.8546 72.2792 17.9517 72.2792 15.0418 72.2723C13.3 72.2723 12.3151 71.0075 12.6192 69.4005C12.792 68.495 13.3726 67.8487 14.1709 67.4859C16.393 66.4837 18.7361 65.5229 21.2071 65.3121C23.9062 65.0806 26.6433 65.0494 29.3527 64.9803C31.3261 64.9285 33.3028 64.9043 35.2796 64.9147H35.2865Z" fill="#2A3250"/>
<path d="M31.957 76.6685C26.9183 76.6685 21.8796 76.6685 16.8374 76.6685C16.1255 76.6685 15.531 76.4922 15.3513 75.7146C15.1544 74.8783 15.4585 74.2355 16.2257 73.8519C16.4883 73.7206 16.789 73.6307 17.0828 73.5996C22.156 73.0087 27.0393 73.5823 31.5942 76.0568C31.7531 76.1432 31.8948 76.2641 32.0469 76.3713C32.0158 76.4715 31.9881 76.5683 31.957 76.6685Z" fill="#2A3250"/>
<path d="M12.2614 19.719C11.0622 24.0873 8.35971 27.3358 4.97636 30.0729C4.20224 30.6984 3.38664 31.3032 2.50538 31.7525C1.70361 32.1603 0.832716 32.1188 0.252122 31.241C-0.366488 30.3079 0.269401 29.7895 0.912202 29.2504C4.69989 26.0779 8.47721 22.8984 12.258 19.719H12.2614Z" fill="#2A3250"/>
<path d="M30.5851 40.5371H26.5763C26.0304 40.5371 25.5879 40.9796 25.5879 41.5255V45.5344C25.5879 46.0802 26.0304 46.5228 26.5763 46.5228H30.5851C31.131 46.5228 31.5735 46.0802 31.5735 45.5344V41.5255C31.5735 40.9796 31.131 40.5371 30.5851 40.5371Z" fill="#E4BC38"/>
<path d="M38.173 40.537H34.1642C33.6183 40.537 33.1758 40.9795 33.1758 41.5254V45.5342C33.1758 46.0801 33.6183 46.5226 34.1642 46.5226H38.173C38.7189 46.5226 39.1614 46.0801 39.1614 45.5342V41.5254C39.1614 40.9795 38.7189 40.537 38.173 40.537Z" fill="#E4BC38"/>
<path d="M30.5851 48.4027H26.5763C26.0304 48.4027 25.5879 48.8452 25.5879 49.3911V53.4C25.5879 53.9458 26.0304 54.3884 26.5763 54.3884H30.5851C31.131 54.3884 31.5735 53.9458 31.5735 53.4V49.3911C31.5735 48.8452 31.131 48.4027 30.5851 48.4027Z" fill="#E4BC38"/>
<path d="M38.173 48.4025H34.1642C33.6183 48.4025 33.1758 48.845 33.1758 49.3909V53.3997C33.1758 53.9456 33.6183 54.3881 34.1642 54.3881H38.173C38.7189 54.3881 39.1614 53.9456 39.1614 53.3997V49.3909C39.1614 48.845 38.7189 48.4025 38.173 48.4025Z" fill="#E4BC38"/>
</svg>
