<svg width="14" height="18" viewBox="0 0 14 18" fill="none" xmlns="http://www.w3.org/2000/svg">
<path d="M5.82639 0.048408C7.59705 -0.168802 9.39278 0.351194 10.7808 1.48288C11.1009 1.74398 11.6665 2.33273 11.907 2.65507C13.1656 4.34179 13.5458 6.43504 12.9906 8.62418C12.4503 10.7543 11.0383 13.1487 8.86785 15.6171C8.29428 16.2694 6.9997 17.5551 6.85248 17.6187C6.69748 17.6834 6.54925 17.6862 6.40386 17.6256C6.26436 17.5673 5.37819 16.7112 4.73243 16.0105C2.36679 13.4437 0.791825 10.8285 0.232363 8.54021C-0.296689 6.37584 0.0812346 4.34907 1.32977 2.65853C1.58503 2.31292 2.18343 1.70053 2.52956 1.42996C3.51036 0.663555 4.62606 0.195667 5.82639 0.048408ZM9.81802 2.22715C8.71105 1.41501 7.33009 1.05039 5.97018 1.21715C4.98863 1.33754 4.07284 1.71851 3.25542 2.35714C2.99163 2.56325 2.46825 3.10101 2.27764 3.35908L2.27649 3.35793C1.24951 4.74855 0.925087 6.4124 1.37694 8.26067C1.87167 10.2842 3.30775 12.7265 5.59863 15.2122C5.9045 15.544 6.27149 15.9171 6.5764 16.2118C6.58923 16.2242 6.60302 16.2355 6.61552 16.2475C6.69387 16.1715 6.78085 16.0919 6.86859 16.0048C7.27524 15.601 7.72172 15.1369 7.98325 14.8395C10.0865 12.4475 11.3709 10.2173 11.8483 8.33545C12.3237 6.46138 11.9919 4.73833 10.9626 3.35908C10.7813 3.11621 10.284 2.59817 10.0366 2.39625L9.81802 2.22715Z" fill="#D8AD39"/>
<path d="M8.24563 6.47871C8.24563 5.50287 7.45456 4.71179 6.47871 4.71179C5.50287 4.71179 4.71179 5.50287 4.71179 6.47871C4.71179 7.45456 5.50287 8.24564 6.47871 8.24564V9.42358C4.85231 9.42358 3.53384 8.10512 3.53384 6.47871C3.53384 4.85231 4.85231 3.53384 6.47871 3.53384C8.10512 3.53384 9.42358 4.85231 9.42358 6.47871C9.42358 8.10512 8.10512 9.42358 6.47871 9.42358V8.24564C7.45456 8.24564 8.24563 7.45456 8.24563 6.47871Z" fill="#D8AD39"/>
</svg>
