<svg width="181" height="69" viewBox="0 0 181 69" fill="none" xmlns="http://www.w3.org/2000/svg">
<path d="M44.3954 27.7693C41.953 27.4878 39.5476 27.121 37.5488 25.4264C35.223 23.456 32.8403 21.5567 30.4633 19.6517C29.9856 19.2679 29.4426 18.9523 28.8995 18.6623C26.4116 17.3345 24.8166 17.4965 22.6869 19.3731C20.8388 20.9994 19.0191 22.6599 17.2392 24.3602C14.032 27.4224 11.0096 30.6638 8.10661 34.0131C7.35314 34.8832 6.48594 35.5286 5.29745 35.6366C4.37623 35.7191 3.4806 35.7504 2.83517 34.886C2.17838 34.0074 2.26936 33.0862 2.71291 32.202C3.34128 30.9538 4.02082 29.7255 4.7487 28.5313C6.89253 25.0142 9.00224 21.4743 11.166 17.9657C13.2103 14.6476 15.2887 11.3522 17.4439 8.10518C20.4436 3.57584 24.7569 1.3524 30.1051 1.04248C31.5836 0.95718 33.0706 1.02258 34.5548 1.06807C35.4248 1.09366 35.8001 1.54005 35.8627 2.48686C36.3517 9.94478 38.8567 16.5668 44.2475 21.9036C45.1432 22.7907 46.2378 23.4958 47.3097 24.1811C48.1286 24.7042 48.1883 25.2928 47.7817 26.0548C47.0595 27.4082 45.8796 27.8603 44.3982 27.775L44.3954 27.7693Z" fill="#FFFFFF"/>
<path d="M29.03 54.408C32.658 54.3881 36.2861 54.4279 39.9084 54.6781C41.8589 54.8118 42.1887 54.3426 41.9499 52.3694C41.512 48.7215 41.33 45.0565 41.5604 41.3858C41.6741 39.5917 42.3081 37.9312 43.2692 36.4101C43.8236 35.5343 44.6083 34.9486 45.666 34.8491C46.991 34.724 47.7729 35.3524 47.9407 36.6915C48.3842 40.2001 48.6032 43.7429 49.6296 47.1577C50.3489 49.5602 51.0342 51.9429 52.1487 54.2431C53.3031 56.6229 54.4603 58.9772 55.8791 61.2006C56.4478 62.0934 56.3426 62.8838 55.7597 63.7112C53.8774 66.3896 51.1394 67.4103 48.0402 67.797C41.3471 68.6329 35.2113 67.163 29.5361 63.5236C26.5137 61.5844 23.0648 60.939 19.542 60.6575C17.1565 60.467 14.7681 60.467 12.3741 60.4614C10.9411 60.4614 10.1307 59.4207 10.381 58.0986C10.5231 57.3537 11.0008 56.822 11.6576 56.5234C13.4858 55.6989 15.4136 54.9084 17.4465 54.735C19.6671 54.5445 21.919 54.5189 24.1481 54.462C25.7716 54.4194 27.398 54.3995 29.0243 54.408H29.03Z" fill="#FFFFFF"/>
<path d="M26.292 64.078C22.1465 64.078 18.001 64.078 13.8527 64.078C13.2669 64.078 12.7779 63.9329 12.6301 63.2932C12.468 62.6051 12.7182 62.0763 13.3494 61.7607C13.5655 61.6526 13.8129 61.5787 14.0545 61.5531C18.2285 61.0669 22.246 61.5389 25.9935 63.5747C26.1243 63.6458 26.2408 63.7453 26.3659 63.8334C26.3403 63.9159 26.3176 63.9955 26.292 64.078Z" fill="#FFFFFF"/>
<path d="M10.0878 17.2241C9.1012 20.818 6.87776 23.4907 4.09419 25.7426C3.45729 26.2572 2.78628 26.7548 2.06124 27.1244C1.4016 27.4599 0.685098 27.4258 0.207427 26.7036C-0.30152 25.9359 0.221644 25.5094 0.750493 25.0659C3.86673 22.4558 6.97443 19.8399 10.085 17.2241H10.0878Z" fill="#FFFFFF"/>
<path d="M25.1641 34.3516H21.8659C21.4168 34.3516 21.0527 34.7156 21.0527 35.1647V38.4629C21.0527 38.912 21.4168 39.2761 21.8659 39.2761H25.1641C25.6132 39.2761 25.9773 38.912 25.9773 38.4629V35.1647C25.9773 34.7156 25.6132 34.3516 25.1641 34.3516Z" fill="#E4BC38"/>
<path d="M31.4043 34.3516H28.1061C27.657 34.3516 27.293 34.7156 27.293 35.1647V38.4629C27.293 38.912 27.657 39.2761 28.1061 39.2761H31.4043C31.8535 39.2761 32.2175 38.912 32.2175 38.4629V35.1647C32.2175 34.7156 31.8535 34.3516 31.4043 34.3516Z" fill="#E4BC38"/>
<path d="M25.1641 40.8228H21.8659C21.4168 40.8228 21.0527 41.1868 21.0527 41.6359V44.9341C21.0527 45.3832 21.4168 45.7473 21.8659 45.7473H25.1641C25.6132 45.7473 25.9773 45.3832 25.9773 44.9341V41.6359C25.9773 41.1868 25.6132 40.8228 25.1641 40.8228Z" fill="#E4BC38"/>
<path d="M31.4043 40.8228H28.1061C27.657 40.8228 27.293 41.1868 27.293 41.6359V44.9341C27.293 45.3832 27.657 45.7473 28.1061 45.7473H31.4043C31.8535 45.7473 32.2175 45.3832 32.2175 44.9341V41.6359C32.2175 41.1868 31.8535 40.8228 31.4043 40.8228Z" fill="#E4BC38"/>
<path d="M71.6569 46.2512H69.0723L83.2667 7.60742H85.4376L99.6092 46.2512H97.0246L91.0015 29.7871H77.661L71.6607 46.2512H71.6569ZM84.337 10.7955L78.458 27.5214H90.2121L84.3332 10.7955H84.337Z" fill="#FFFFFF"/>
<path d="M132.947 28.7774V40.9034C130.184 43.2034 126.518 44.3533 121.948 44.3533C117.379 44.3533 113.637 42.6454 110.471 39.2297C107.31 35.8139 105.727 31.7188 105.727 26.9405C105.727 22.1622 107.314 18.0405 110.483 14.6248C113.652 11.209 117.5 9.5011 122.021 9.5011C126.541 9.5011 130.37 10.9509 133.46 13.8467L134.799 11.7669C131.384 8.59023 127.125 7 122.021 7C116.916 7 112.362 8.94699 108.703 12.8334C105.044 16.7236 103.215 21.4259 103.215 26.9405C103.215 32.4551 105.029 37.1309 108.654 41.0211C112.278 44.9112 116.711 46.8544 121.945 46.8544C127.178 46.8544 131.418 45.2376 135.334 42.376V28.7736H132.943L132.947 28.7774Z" fill="#FFFFFF"/>
<path d="M144.138 10.0324L144.187 7.63379H141.773V46.3041H144.138V10.0324Z" fill="#FFFFFF"/>
<path d="M159.761 11.1862C157.541 8.82931 154.846 7.63379 151.757 7.63379H143.783V9.99446H151.431C153.992 9.99446 156.201 10.985 158 12.9358C159.792 14.8828 160.699 17.2511 160.699 19.9837C160.699 22.7163 159.792 25.0808 157.996 27.0164C156.198 28.9596 153.989 29.9426 151.427 29.9426H143.779V32.3374H151.753C154.843 32.3374 157.537 31.1419 159.758 28.785C161.982 26.4243 163.109 23.464 163.109 19.9837C163.109 16.5034 161.982 13.5431 159.758 11.1824L159.761 11.1862Z" fill="#FFFFFF"/>
<path d="M69.778 53.2764V61.5425H69V53.2764H69.778Z" fill="#FFFFFF"/>
<path d="M75.0215 61.5425V53.2764H75.9134L79.6859 58.9086C79.7884 59.0604 79.906 59.2388 80.0313 59.4399C80.1603 59.6449 80.2931 59.865 80.4336 60.1003C80.574 60.3356 80.7106 60.5823 80.8435 60.8366L80.7258 60.8632C80.7068 60.6051 80.6917 60.347 80.6803 60.0965C80.6689 59.8422 80.6613 59.6031 80.6575 59.3792C80.6575 59.1553 80.6537 58.9541 80.6537 58.7871V53.2802H81.4355V61.5463H80.5323L77.0102 56.3088C76.8812 56.1115 76.7483 55.9065 76.6117 55.6902C76.4751 55.4738 76.3233 55.2271 76.1601 54.9539C75.9969 54.6806 75.8033 54.3618 75.587 54.0013L75.735 53.9633C75.7464 54.3049 75.7578 54.6199 75.7654 54.9159C75.773 55.212 75.7843 55.4776 75.7919 55.7092C75.7995 55.9407 75.8033 56.1418 75.8033 56.3012V61.5425H75.0215Z" fill="#FFFFFF"/>
<path d="M86.6836 61.5425V53.2764H87.7766L90.0956 58.9617C90.1487 59.0832 90.2018 59.2274 90.2626 59.3906C90.3233 59.5538 90.384 59.7284 90.4485 59.9105C90.5131 60.0927 90.5738 60.2711 90.6345 60.4533C90.6952 60.6317 90.7484 60.7986 90.7939 60.9505H90.5928C90.6459 60.8024 90.699 60.6392 90.7598 60.4647C90.8205 60.2901 90.8812 60.1079 90.9457 59.9257C91.0102 59.7436 91.0748 59.569 91.1355 59.402C91.1962 59.235 91.2493 59.0908 91.2987 58.9655L93.5948 53.2802H94.6993V61.5463H93.9288V56.286C93.9288 56.1228 93.9288 55.9445 93.9288 55.7509C93.9288 55.5573 93.9326 55.3562 93.9364 55.1475C93.9364 54.9387 93.944 54.73 93.9478 54.5212C93.9478 54.3087 93.9554 54.1037 93.9592 53.8988H94.0541C93.9782 54.1189 93.8985 54.3428 93.8188 54.5706C93.7391 54.7945 93.6631 55.0146 93.5872 55.2234C93.5113 55.4321 93.4392 55.6257 93.3709 55.8078C93.3026 55.99 93.2419 56.1494 93.1849 56.286L91.0254 61.5463H90.3499L88.1752 56.286C88.1182 56.1494 88.0575 55.9938 87.993 55.8154C87.9247 55.637 87.8525 55.4473 87.7766 55.2385C87.7007 55.0298 87.621 54.8135 87.5413 54.5857C87.4616 54.358 87.3781 54.1303 87.2946 53.8988H87.4009C87.4085 54.0886 87.4123 54.2859 87.4161 54.4909C87.4161 54.6996 87.4199 54.9083 87.4237 55.1171C87.4237 55.3296 87.4313 55.5308 87.4313 55.7319C87.4313 55.9293 87.4313 56.1152 87.4313 56.2822V61.5425H86.6836Z" fill="#FFFFFF"/>
<path d="M103.178 61.6518C102.476 61.6518 101.853 61.4772 101.311 61.1281C100.768 60.7789 100.343 60.2855 100.035 59.6479C99.7279 59.0103 99.5723 58.2664 99.5723 57.4125C99.5723 56.5585 99.7279 55.8071 100.035 55.1732C100.343 54.5356 100.768 54.0422 101.311 53.6931C101.853 53.3401 102.476 53.1655 103.178 53.1655C103.88 53.1655 104.495 53.3401 105.037 53.6931C105.576 54.046 106.002 54.5394 106.309 55.1732C106.616 55.8108 106.772 56.5547 106.772 57.4125C106.772 58.2702 106.616 59.0103 106.309 59.6479C106.002 60.2855 105.576 60.7751 105.037 61.1281C104.499 61.4772 103.88 61.6518 103.178 61.6518ZM103.178 60.9269C103.713 60.9269 104.195 60.7865 104.624 60.5094C105.053 60.2324 105.387 59.8263 105.637 59.3025C105.884 58.7788 106.009 58.1488 106.009 57.4163C106.009 56.6838 105.884 56.0424 105.637 55.5186C105.39 54.9949 105.053 54.5926 104.624 54.3117C104.195 54.0309 103.717 53.8942 103.178 53.8942C102.639 53.8942 102.153 54.0346 101.724 54.3117C101.295 54.5926 100.958 54.9949 100.711 55.5186C100.464 56.0424 100.339 56.6762 100.339 57.4163C100.339 58.1563 100.464 58.775 100.711 59.2987C100.958 59.8225 101.295 60.2248 101.724 60.5056C102.153 60.7865 102.635 60.9269 103.182 60.9269H103.178Z" fill="#FFFFFF"/>
<path d="M111.644 61.5425V53.2764H114.46C114.995 53.2764 115.447 53.3675 115.815 53.5534C116.183 53.7394 116.46 53.9937 116.646 54.3201C116.832 54.6465 116.927 55.0184 116.927 55.4359C116.927 55.7775 116.87 56.0697 116.753 56.3126C116.635 56.5555 116.476 56.7567 116.274 56.9123C116.073 57.0679 115.846 57.1817 115.588 57.2576V57.307C115.861 57.3335 116.126 57.4284 116.377 57.5992C116.631 57.7662 116.84 57.9977 116.999 58.2938C117.163 58.586 117.242 58.939 117.242 59.3488C117.242 59.7587 117.147 60.1534 116.954 60.4836C116.76 60.8138 116.472 61.0757 116.081 61.2617C115.69 61.4514 115.197 61.5463 114.601 61.5463H111.633L111.644 61.5425ZM112.418 57.0109H114.532C114.863 57.0109 115.147 56.9426 115.394 56.8098C115.641 56.6732 115.83 56.491 115.967 56.2595C116.104 56.028 116.172 55.7585 116.172 55.4625C116.172 55.0184 116.024 54.6617 115.732 54.3884C115.439 54.1151 115.011 53.9823 114.453 53.9823H112.418V57.0147V57.0109ZM112.418 60.8442H114.593C115.231 60.8442 115.705 60.7038 116.02 60.4267C116.335 60.1459 116.491 59.7891 116.491 59.3488C116.491 59.03 116.415 58.7454 116.259 58.4987C116.104 58.2482 115.887 58.0509 115.61 57.9066C115.333 57.7624 115.007 57.6865 114.635 57.6865H112.422V60.848L112.418 60.8442Z" fill="#FFFFFF"/>
<path d="M122.901 53.2764V61.5425H122.123V53.2764H122.901Z" fill="#FFFFFF"/>
<path d="M128.139 61.5425V53.2764H128.921V60.8442H132.883V61.5425H128.139Z" fill="#FFFFFF"/>
<path d="M138.395 53.2764V61.5425H137.617V53.2764H138.395Z" fill="#FFFFFF"/>
<path d="M142.867 61.5425L145.9 53.2764H146.814L149.869 61.5425H149.05L147.087 56.1304C146.977 55.8268 146.856 55.4776 146.723 55.0791C146.59 54.6806 146.438 54.2024 146.264 53.6407H146.442C146.271 54.2062 146.12 54.692 145.987 55.0905C145.854 55.4928 145.736 55.8382 145.63 56.1304L143.683 61.5425H142.863H142.867ZM144.29 59.0832V58.3886H148.458V59.0832H144.29Z" fill="#FFFFFF"/>
<path d="M154.345 61.5425V53.2764H157.097C157.67 53.2764 158.156 53.3826 158.551 53.5914C158.945 53.8001 159.245 54.0924 159.45 54.4643C159.655 54.8362 159.758 55.2689 159.758 55.7585C159.758 56.2481 159.655 56.6732 159.446 57.0413C159.238 57.4094 158.938 57.6979 158.539 57.9028C158.141 58.1116 157.655 58.214 157.082 58.214H154.774V57.5081H157.067C157.488 57.5081 157.841 57.436 158.122 57.2918C158.406 57.1476 158.619 56.9464 158.763 56.6845C158.907 56.4227 158.98 56.1152 158.98 55.7547C158.98 55.3941 158.907 55.0829 158.763 54.8173C158.619 54.5516 158.403 54.3428 158.118 54.1948C157.833 54.0468 157.48 53.9747 157.059 53.9747H155.116V61.5425H154.338H154.345ZM159.15 61.5425L157.143 57.808H158.023L160.046 61.5425H159.147H159.15Z" fill="#FFFFFF"/>
<path d="M165.438 53.2764V61.5425H164.66V53.2764H165.438Z" fill="#FFFFFF"/>
<path d="M169.91 61.5425L172.943 53.2764H173.857L176.912 61.5425H176.093L174.13 56.1304C174.02 55.8268 173.899 55.4776 173.766 55.0791C173.633 54.6806 173.481 54.2024 173.307 53.6407H173.485C173.314 54.2062 173.163 54.692 173.03 55.0905C172.897 55.4928 172.779 55.8382 172.673 56.1304L170.726 61.5425H169.906H169.91ZM171.329 59.0832V58.3886H175.497V59.0832H171.329Z" fill="#FFFFFF"/>
</svg>