<svg width="21" height="16" viewBox="0 0 21 16" fill="none" xmlns="http://www.w3.org/2000/svg">
<path d="M19 3.94727C19 3.37545 18.9989 2.99358 18.9736 2.7002C18.9666 2.61813 18.9571 2.54858 18.9473 2.48926C17.813 3.28038 16.2985 4.36198 15.042 5.2666C14.3815 5.74213 13.7934 6.16801 13.3701 6.47461C13.1584 6.62792 12.9875 6.7517 12.8701 6.83692C12.8116 6.87942 12.7661 6.91225 12.7354 6.93457C12.72 6.94575 12.7081 6.95425 12.7002 6.95996C12.6963 6.96279 12.6934 6.96537 12.6914 6.9668C12.6905 6.96744 12.6899 6.96842 12.6895 6.96875H12.6885C12.6842 6.97188 12.6801 6.97548 12.6758 6.97852C12.0092 7.44164 11.5173 7.79729 10.957 7.93457C10.4931 8.0482 10.0059 8.04824 9.542 7.93457C8.98232 7.79731 8.49243 7.44169 7.82715 6.97949C7.82354 6.97699 7.81997 6.97425 7.81641 6.97168V6.97266L1.55176 2.49121C1.54199 2.55031 1.5334 2.61966 1.52637 2.70117C1.50106 2.99506 1.5 3.37731 1.5 3.9502V11.5498C1.5 12.1227 1.50106 12.5051 1.52637 12.7988C1.55084 13.0825 1.59378 13.2156 1.64063 13.3027C1.76575 13.5353 1.96937 13.7313 2.22852 13.8564C2.33437 13.9075 2.48965 13.9507 2.79785 13.9746C3.1138 13.9991 3.52327 14 4.125 14H16.375C16.9766 14 17.3855 13.999 17.7012 13.9746C18.0092 13.9507 18.1646 13.9076 18.2705 13.8564C18.5305 13.7309 18.7347 13.5345 18.8594 13.3027C18.9061 13.2158 18.9492 13.0829 18.9736 12.7998C18.9989 12.5067 19 12.1254 19 11.5537V3.94727ZM4.12793 1.5C3.52507 1.5 3.11531 1.5009 2.79883 1.52539C2.79358 1.5258 2.78836 1.52595 2.78321 1.52637L8.68262 5.74805L9.16407 6.0791C9.56143 6.34633 9.73092 6.43624 9.89942 6.47754C10.1289 6.53377 10.3711 6.53377 10.6006 6.47754C10.8254 6.42236 11.0523 6.27901 11.8193 5.7461C11.8272 5.7404 11.8388 5.7324 11.8535 5.72168C11.8844 5.69923 11.9304 5.66574 11.9893 5.62305C12.107 5.53758 12.2781 5.4134 12.4902 5.25977C12.9144 4.95255 13.5041 4.52636 14.166 4.04981C15.2879 3.2421 16.6215 2.28889 17.709 1.52539C17.7062 1.52517 17.703 1.52561 17.7002 1.52539C17.3841 1.50094 16.9747 1.5 16.3721 1.5H4.12793ZM20.5 11.5537C20.5 12.0993 20.5009 12.5562 20.4688 12.9287C20.4357 13.3113 20.3636 13.6723 20.1807 14.0127C19.9006 14.5335 19.4572 14.9501 18.9229 15.208C18.5777 15.3746 18.2121 15.4401 17.8174 15.4707C17.4303 15.5007 16.9533 15.5 16.375 15.5H4.125C3.54689 15.5 3.06984 15.5007 2.68262 15.4707C2.28773 15.4401 1.92145 15.3747 1.57617 15.208C1.04098 14.9496 0.598989 14.5327 0.319339 14.0127C0.136266 13.6721 0.0642931 13.3108 0.0312526 12.9277C-0.000900183 12.5547 2.5711e-06 12.0966 2.5711e-06 11.5498V3.9502C2.5711e-06 3.40335 -0.00090256 2.9455 0.0312526 2.57227C0.0642956 2.18901 0.136049 1.82712 0.319339 1.48633C0.599161 0.966088 1.04157 0.551118 1.57617 0.29297C1.9217 0.126182 2.28821 0.0598927 2.6836 0.0292983C3.07133 -0.000686212 3.54865 1.39733e-06 4.12793 1.43003e-06H16.3721C16.9514 1.43003e-06 17.4289 -0.000705218 17.8164 0.0292983C18.2116 0.0599087 18.5774 0.126241 18.9229 0.29297C19.4566 0.550697 19.9004 0.965313 20.1807 1.48633C20.3638 1.82688 20.4357 2.1885 20.4688 2.57129C20.5009 2.94404 20.5 3.40153 20.5 3.94727V11.5537Z" fill="#D8AD39"/>
</svg>
