<svg width="20" height="22" viewBox="0 0 20 22" fill="none" xmlns="http://www.w3.org/2000/svg">
<path d="M0.216793 2.22444C0.448986 0.782294 1.80611 -0.198092 3.24804 0.034013L5.96386 0.470536C7.07405 0.649283 7.9636 1.48665 8.20996 2.58382L8.833 5.35335C9.05442 6.33948 8.71624 7.36722 7.95507 8.03011H7.9541L7.28613 8.61214L7.28515 8.61116C6.79875 9.03517 6.71614 9.76159 7.09472 10.286L7.0957 10.2869L8.68261 12.4842H8.68164C9.06012 13.008 9.77667 13.1567 10.333 12.827L11.0947 12.3748H11.0957C11.9646 11.8599 13.0452 11.8635 13.9111 12.3826L16.3467 13.8426C17.3111 14.4209 17.8261 15.5274 17.6475 16.6375L17.21 19.3543C16.9776 20.796 15.6207 21.7768 14.1787 21.5448C4.98822 20.065 -1.26283 11.4149 0.216793 2.22444ZM3.00976 1.51448C2.38548 1.41398 1.79774 1.83865 1.69726 2.46272C0.349282 10.8353 6.04441 18.7152 14.417 20.0633C15.041 20.1638 15.628 19.7394 15.7285 19.1151L16.167 16.3992L16.1826 16.2108C16.1858 15.8354 16.0195 15.4775 15.7305 15.2381L15.5752 15.1287L13.1406 13.6688C12.7467 13.4326 12.2551 13.4318 11.8603 13.6658L11.8594 13.6649L11.0986 14.117C9.87537 14.8422 8.29904 14.5161 7.46582 13.3631V13.3621L5.8789 11.1649V11.1639C5.04702 10.0118 5.22883 8.41456 6.30175 7.4803L6.96972 6.89827L7.09082 6.77815C7.31385 6.52286 7.42401 6.18746 7.3955 5.85042L7.36914 5.68245L6.74609 2.91194C6.63401 2.4134 6.23009 2.03323 5.72558 1.95198L3.00976 1.51448ZM11.9141 2.06624L11.915 2.06722C11.9157 2.0674 11.917 2.06792 11.918 2.06819C11.92 2.06875 11.9226 2.06925 11.9258 2.07015C11.9331 2.0722 11.9439 2.07515 11.957 2.07893C11.9834 2.08651 12.0213 2.09777 12.0693 2.11214C12.1657 2.14095 12.3038 2.18293 12.4727 2.23811C12.8102 2.34841 13.2763 2.51153 13.79 2.72151C14.79 3.13024 16.0771 3.75963 16.9102 4.59261C17.7432 5.42562 18.3725 6.71269 18.7812 7.71272C18.9913 8.22658 19.1543 8.69255 19.2646 9.03011C19.3199 9.19908 19.3618 9.33706 19.3906 9.43343C19.405 9.48152 19.4162 9.51932 19.4238 9.54573C19.4276 9.55896 19.4305 9.56965 19.4326 9.57698C19.4336 9.58053 19.435 9.58369 19.4355 9.58577V9.58772L19.4365 9.5887C19.4366 9.58883 19.4365 9.58994 18.7139 9.78987C17.991 9.98987 17.9902 9.98999 17.9902 9.99007V9.98909C17.99 9.98811 17.99 9.98571 17.9893 9.98323C17.9878 9.97825 17.9855 9.97035 17.9824 9.95979C17.9763 9.93833 17.9668 9.90569 17.9541 9.86311C17.9285 9.77751 17.8898 9.65171 17.8389 9.49593C17.7368 9.18362 17.5858 8.75281 17.3926 8.28011C16.9948 7.30704 16.4573 6.26088 15.8496 5.65315C15.2418 5.04543 14.1957 4.5079 13.2227 4.11018C12.75 3.91699 12.3191 3.76595 12.0068 3.6639C11.8511 3.61302 11.7252 3.57523 11.6396 3.54964C11.597 3.53687 11.5644 3.52651 11.543 3.52034C11.5323 3.51728 11.5245 3.5149 11.5195 3.51351L11.5137 3.51253C11.5138 3.51238 11.5171 3.5011 11.7139 2.78987C11.9139 2.06703 11.9139 2.0662 11.9141 2.06624ZM12.4141 5.56722H12.416C12.4172 5.56755 12.4191 5.56768 12.4209 5.56819C12.4247 5.56927 12.4301 5.57124 12.4365 5.57308C12.4492 5.57673 12.4672 5.5821 12.4893 5.5887C12.5336 5.60197 12.5958 5.62147 12.6719 5.64632C12.8238 5.69595 13.0336 5.76927 13.2656 5.86409C13.7019 6.0424 14.3228 6.33733 14.7441 6.75862C15.1655 7.17999 15.4613 7.80086 15.6396 8.23714C15.7345 8.46911 15.8078 8.67901 15.8574 8.83089C15.8822 8.90676 15.9008 8.96917 15.9141 9.0135C15.9206 9.03547 15.926 9.05352 15.9297 9.06624C15.9315 9.0726 15.9335 9.07805 15.9346 9.08186C15.9351 9.08377 15.9352 9.0855 15.9355 9.08675V9.0887H15.9365C15.9366 9.08882 15.9365 9.08994 15.2139 9.28987C14.503 9.48656 14.4904 9.48894 14.4902 9.48909L14.4883 9.48128C14.4861 9.47355 14.4825 9.46071 14.4775 9.44417C14.4675 9.41058 14.4522 9.35966 14.4316 9.29671C14.3903 9.17008 14.329 8.99534 14.251 8.80452C14.0838 8.3955 13.8796 8.01635 13.6836 7.82015C13.4875 7.62404 13.1076 7.4191 12.6982 7.25179C12.5074 7.1738 12.3327 7.11348 12.2061 7.0721C12.1432 7.05155 12.0932 7.03528 12.0596 7.02522C12.043 7.02027 12.0303 7.01673 12.0225 7.01448C12.0186 7.01336 12.0151 7.01294 12.0137 7.01253L12.2139 6.28987C12.4139 5.56703 12.4139 5.56621 12.4141 5.56624V5.56722Z" fill="#D8AD39"/>
</svg>
