<svg width="34" height="34" viewBox="0 0 34 34" fill="none" xmlns="http://www.w3.org/2000/svg">
<path d="M0 33.3212C0.605795 31.1 1.1914 28.9595 1.777 26.7988C1.93855 26.2132 2.12028 25.6276 2.26164 25.0218C2.30202 24.8805 2.26164 24.6785 2.20106 24.5372C0.646182 21.7101 -0.0605795 18.6811 0.181739 15.4704C0.585602 10.0587 3.06936 5.7979 7.57244 2.74873C10.561 0.729408 13.9131 -0.219672 17.5277 0.0428395C24.0501 0.507283 28.8964 3.718 31.6225 9.65479C34.288 15.43 33.6418 21.1043 29.9263 26.294C27.2608 30.0297 23.5452 32.1904 19.0018 32.877C15.4882 33.402 12.1361 32.7962 8.98596 31.1807C8.84461 31.1 8.62249 31.1 8.46094 31.1403C5.77525 31.8269 3.06936 32.5337 0.38367 33.2404C0.282705 33.2606 0.161545 33.301 0 33.3212ZM3.95786 29.4037C4.05883 29.4037 4.09922 29.3835 4.1396 29.3633C5.65409 28.9595 7.18877 28.5758 8.70326 28.1517C9.00616 28.071 9.26867 28.0912 9.55137 28.2729C12.6005 30.0903 15.892 30.6961 19.3653 29.9691C26.7156 28.4546 31.4206 21.5284 30.1686 14.1377C29.0984 7.87779 23.6866 3.07182 17.3459 2.80931C13.8323 2.66795 10.6822 3.65742 7.97631 5.89886C4.88675 8.4432 3.19052 11.7549 2.9482 15.7733C2.76647 18.7215 3.51361 21.4678 5.10887 23.9516C5.29061 24.2343 5.331 24.4766 5.23003 24.8199C4.80598 26.3344 4.40211 27.8489 3.95786 29.4037Z" fill="white"/>
<path d="M11.2859 8.92715C12.0331 8.72522 12.3764 9.18966 12.6187 9.83584C12.9822 10.7849 13.386 11.734 13.7899 12.6831C13.9312 13.0062 13.9312 13.2889 13.7091 13.5716C13.386 14.0158 13.0629 14.4601 12.6994 14.9043C12.4773 15.1668 12.4369 15.4092 12.6187 15.7323C13.9716 18.0141 15.8496 19.6497 18.3132 20.6392C18.6362 20.7604 18.8988 20.72 19.1209 20.4373C19.5449 19.9122 19.969 19.4074 20.3729 18.8622C20.6152 18.5593 20.8777 18.4583 21.221 18.6199C22.3922 19.1651 23.5634 19.7103 24.7144 20.2959C24.8557 20.3565 24.9769 20.6392 24.9769 20.8007C24.9567 22.5575 24.4317 23.4057 22.5537 24.1932C21.4835 24.6374 20.3931 24.5365 19.2824 24.2336C15.3246 23.123 12.3966 20.6392 10.0541 17.3477C9.32719 16.3179 8.66081 15.2476 8.37811 13.9956C7.97424 12.1984 8.41849 10.6638 9.73105 9.3714C10.1551 8.96753 10.6599 8.86657 11.2455 8.94734L11.2859 8.92715Z" fill="white"/>
</svg>
